<?xml version="1.0" encoding="UTF-8"?>
<!DOCTYPE svg PUBLIC "-//W3C//DTD SVG 1.1//EN" "http://www.w3.org/Graphics/SVG/1.1/DTD/svg11.dtd">
<svg version="1.1" xmlns="http://www.w3.org/2000/svg" xmlns:xlink="http://www.w3.org/1999/xlink" x="0" y="0" width="679" height="207" viewBox="0, 0, 679, 207">
  <g id="Layer_1">
    <path d="M213.517,104.24 C213.517,133.755 209.498,157.904 204.586,157.904 C199.673,157.904 195.654,133.755 195.654,104.24 C195.654,74.725 199.673,50.574 204.586,50.574 C209.498,50.574 213.517,74.725 213.517,104.24" fill="#304489"/>
    <path d="M242.282,104.235 C242.282,148.301 238.26,184.356 233.348,184.356 C228.434,184.356 224.414,148.301 224.414,104.235 C224.414,60.175 228.434,24.125 233.348,24.125 C238.26,24.125 242.282,60.175 242.282,104.235" fill="#398EBA"/>
    <path d="M271.051,117.246 C271.051,165.12 267.03,204.291 262.117,204.291 C257.203,204.291 253.18,165.12 253.18,117.246 L253.18,91.235 C253.18,43.361 257.203,4.187 262.117,4.187 C267.03,4.187 271.051,43.361 271.051,91.235 L271.051,117.246" fill="#72C3E2"/>
    <path d="M299.816,104.235 C299.816,148.301 295.796,184.356 290.879,184.356 C285.969,184.356 281.948,148.301 281.948,104.235 C281.948,60.175 285.969,24.125 290.879,24.125 C295.796,24.125 299.816,60.175 299.816,104.235" fill="#AADADD"/>
    <path d="M328.59,104.24 C328.59,133.755 324.567,157.904 319.652,157.904 C314.735,157.904 310.714,133.755 310.714,104.24 C310.714,74.725 314.735,50.574 319.652,50.574 C324.567,50.574 328.59,74.725 328.59,104.24" fill="#D2EBED"/>
    <path d="M34.809,115.346 C45.655,115.346 49.243,110.39 49.243,104.241 C49.243,98.091 45.655,93.136 34.809,93.136 L22.55,93.136 C11.662,93.136 8.073,98.091 8.073,104.241 C8.073,110.39 11.662,115.346 22.509,115.346 L34.809,115.346 z M22.467,119.615 C8.543,119.615 3.077,112.74 3.077,104.241 C3.077,95.74 8.543,88.865 22.467,88.865 L34.85,88.865 C48.773,88.865 54.237,95.74 54.237,104.241 C54.237,112.74 48.773,119.615 34.85,119.615 L22.467,119.615" fill="#0A0B09"/>
    <path d="M67.347,94.803 L67.347,119.191 L62.648,119.191 L62.648,89.292 L67.092,89.292 L103.308,113.678 L103.308,89.292 L108.004,89.292 L108.004,119.191 L103.562,119.191 L67.347,94.803" fill="#0A0B09"/>
    <path d="M118.422,89.292 L160.999,89.292 L160.999,93.566 L123.119,93.566 L123.119,102.32 L156.645,102.32 L156.645,106.163 L123.119,106.163 L123.119,114.917 L160.999,114.917 L160.999,119.191 L118.422,119.191 L118.422,89.292" fill="#0A0B09"/>
    <path d="M363.445,114.917 L396.199,114.917 C400.942,114.917 402.223,112.913 402.223,110.557 C402.223,108.123 400.942,106.163 396.199,106.163 L372.542,106.163 C364.729,106.163 361.737,102.536 361.737,97.749 C361.737,93.049 364.729,89.292 372.542,89.292 L405.425,89.292 L405.425,93.566 L372.672,93.566 C367.931,93.566 366.648,95.568 366.648,97.919 C366.648,100.353 367.931,102.32 372.672,102.32 L396.328,102.32 C404.143,102.32 407.136,105.946 407.136,110.733 C407.136,115.43 404.143,119.191 396.328,119.191 L363.445,119.191 L363.445,114.917" fill="#0A0B09"/>
    <path d="M445.143,115.346 C455.988,115.346 459.577,110.39 459.577,104.241 C459.577,98.091 455.988,93.136 445.143,93.136 L432.888,93.136 C421.995,93.136 418.409,98.091 418.409,104.241 C418.409,110.39 421.995,115.346 432.844,115.346 L445.143,115.346 z M432.803,119.615 C418.878,119.615 413.411,112.74 413.411,104.241 C413.411,95.74 418.878,88.865 432.803,88.865 L445.182,88.865 C459.108,88.865 464.572,95.74 464.572,104.241 C464.572,112.74 459.108,119.615 445.182,119.615 L432.803,119.615" fill="#0A0B09"/>
    <path d="M490.152,115.346 L499.846,115.346 C510.182,115.346 513.17,111.203 513.17,105.395 L513.17,89.292 L517.869,89.292 L517.869,105.395 C517.869,113.637 513.425,119.615 499.89,119.615 L490.11,119.615 C476.575,119.615 472.129,113.637 472.129,105.395 L472.129,89.292 L476.827,89.292 L476.827,105.395 C476.827,111.203 479.818,115.346 490.152,115.346" fill="#0A0B09"/>
    <path d="M532.128,93.566 L532.128,103.896 L559.248,103.896 C564.759,103.896 566.42,101.592 566.42,98.73 C566.42,95.91 564.759,93.566 559.248,93.566 L532.128,93.566 z M527.434,89.292 L559.421,89.292 C567.961,89.292 571.333,93.478 571.333,98.6 C571.333,103.855 567.961,107.956 559.421,107.956 L557.282,107.956 L576.589,119.191 L568.684,119.191 L549.894,108 L532.128,108 L532.128,119.191 L527.434,119.191 L527.434,89.292" fill="#0A0B09"/>
    <path d="M598.749,114.917 L623.818,114.917 L623.818,119.191 L598.705,119.191 C585.166,119.191 579.876,112.486 579.876,104.241 C579.876,96.002 585.166,89.292 598.705,89.292 L623.818,89.292 L623.818,93.566 L598.749,93.566 C588.287,93.566 584.871,98.345 584.871,104.241 C584.871,110.133 588.287,114.917 598.749,114.917" fill="#0A0B09"/>
    <path d="M632.441,89.292 L675.021,89.292 L675.021,93.566 L637.14,93.566 L637.14,102.32 L670.667,102.32 L670.667,106.163 L637.14,106.163 L637.14,114.917 L675.021,114.917 L675.021,119.191 L632.441,119.191 L632.441,89.292" fill="#0A0B09"/>
  </g>
</svg>
